# xmcd
#
# Track frame offsets: 
#        150
#        17000
#        34867
#        57482
#        72145
#        88580
#        108437
#        122307
#        139840
#        154525
#        169270
#        181862
#        195365
#        211870
#        226697
#        240965
#        256785
#        270947
#
# Disc length: 3786 seconds
#
# Revision: 3
# Processed by: cddbd v1.5.2PL0 Copyright (c) Steve Scherf et al.
# Submitted via: ExactAudioCopyFreeDBPlugin 1.0
#
DISCID=d90ec812
DTITLE=Various Artist - GSCD139 - For Modern Millionaires Volume 1
DYEAR=1900
DGENRE=Northern Soul
TTITLE0=AD Libs - I Don't Need No Fortune Teller
TTITLE1=Co Co and Ben - Good  Feelin'
TTITLE2=The Mark IV - If You Can't Tell Me Something Good
TTITLE3=Traffic Jam - I Can't Get Over You
TTITLE4=The True Pages Of Life - Truth and Love
TTITLE5=Ramsey and Co. - Love Call
TTITLE6=Troy Johnson - I Want You
TTITLE7=Herby Brown - One More Broken Heart
TTITLE8=The Split Decision Band - Watchin' Out
TTITLE9=Morris 'Jazzy' Miller With Fantastic Flight - What People Say 
TTITLE9=(Is The Story)
TTITLE10=Sammy Gaha - Thank You
TTITLE11=Morris - Can't We Melt The Ice
TTITLE12=Cloudburst - I'm Loving You
TTITLE13=Emanuel Taylor - You Really Got A Hold On Me
TTITLE14=Jesse Fisher - Honey
TTITLE15=Milton Parker - Women Like It Harder
TTITLE16=Veda Brown - I Had A Fight With Love
TTITLE17=Richard Caiton - I'd Like To Get Near You
EXTD=
EXTT0=
EXTT1=
EXTT2=
EXTT3=
EXTT4=
EXTT5=
EXTT6=
EXTT7=
EXTT8=
EXTT9=
EXTT10=
EXTT11=
EXTT12=
EXTT13=
EXTT14=
EXTT15=
EXTT16=
EXTT17=
PLAYORDER=
